<svg width="64.000000" height="64.000000" viewBox="0 0 64 64" fill="none" xmlns="http://www.w3.org/2000/svg" xmlns:xlink="http://www.w3.org/1999/xlink">
	<desc>
			Created with Pixso.
	</desc>
	<defs>
		<clipPath id="clip6_336">
			<rect id="dashicons-cloud" rx="-0.500000" width="63.000000" height="63.000000" transform="translate(0.500000 0.500000)" fill="white" fill-opacity="0"/>
		</clipPath>
	</defs>
	<rect id="dashicons-cloud" rx="-0.500000" width="63.000000" height="63.000000" transform="translate(0.500000 0.500000)" fill="#FFFFFF" fill-opacity="0"/>
	<g clip-path="url(#clip6_336)">
		<path id="Vector" d="M47.68 28.8C47.68 27.84 48 26.88 48 25.6C48 18.56 42.24 12.8 35.2 12.8C30.08 12.8 25.92 15.68 23.68 19.84C23.04 19.52 21.76 19.2 20.8 19.2C16.32 19.2 12.8 22.72 12.8 27.2C12.8 27.84 12.8 28.48 13.12 28.8C7.35 29.76 3.2 34.24 3.2 40C3.2 46.08 8.32 51.2 14.4 51.2L46.4 51.2C52.48 51.2 57.6 46.08 57.6 40C57.6 34.24 53.44 29.44 47.68 28.8Z" fill="#FFFFFF" fill-opacity="1.000000" fill-rule="nonzero"/>
	</g>
</svg>
